# xmcd CD database file
#
# Track frame offsets:
#	150
#	26634
#	48074
#	115406
#	134741
#	155641
#	175135
#	195030
#	210327
#	231659
#
# Disc length: 3492 seconds
#
# Revision: 0
# Processed by: cddbd v1.4PL0 Copyright (c) Steve Scherf et al.
# Submitted via: CDex 1.50Beta5
#
DISCID=850da20a
DTITLE=Dizzy Gillespie - Dizzy in South America Vol. 2
DYEAR=1956
DGENRE=Jazz
TTITLE0=Groovin' High
TTITLE1=Begin the Beguine
TTITLE2=Hey Pete, Let's Eat More Meat
TTITLE3=Wonder Why
TTITLE4=Because of You
TTITLE5=I'm Confessin'
TTITLE6=Doodlin'
TTITLE7=My Reverie
TTITLE8=Tin Tin Daeo
TTITLE9=The Champ
EXTD=YEAR: 1956
EXTT0=
EXTT1=
EXTT2=
EXTT3=
EXTT4=
EXTT5=
EXTT6=
EXTT7=
EXTT8=
EXTT9=
PLAYORDER=
